<svg width="21" height="18" viewBox="0 0 21 18" fill="none" xmlns="http://www.w3.org/2000/svg">
<path d="M9.99994 18C8.75494 18 7.58494 17.7636 6.48994 17.2908C5.39494 16.818 4.44244 16.1769 3.63244 15.3675C2.82244 14.5575 2.18134 13.605 1.70914 12.51C1.23694 11.415 1.00054 10.245 0.999939 9C0.999939 7.755 1.23634 6.585 1.70914 5.49C2.18194 4.395 2.82304 3.4425 3.63244 2.6325C4.44244 1.8225 5.39494 1.1814 6.48994 0.7092C7.58494 0.237 8.75494 0.0006 9.99994 0C11.2449 0 12.4149 0.2364 13.5099 0.7092C14.6049 1.182 15.5574 1.8231 16.3674 2.6325C17.1774 3.4425 17.8188 4.395 18.2916 5.49C18.7644 6.585 19.0005 7.755 18.9999 9C18.9999 10.245 18.7635 11.415 18.2907 12.51C17.8179 13.605 17.1768 14.5575 16.3674 15.3675C15.5574 16.1775 14.6049 16.8189 13.5099 17.2917C12.4149 17.7645 11.2449 18.0006 9.99994 18ZM9.99994 16.2C12.0099 16.2 13.7124 15.5025 15.1074 14.1075C16.5024 12.7125 17.1999 11.01 17.1999 9C17.1999 6.99 16.5024 5.2875 15.1074 3.8925C13.7124 2.4975 12.0099 1.8 9.99994 1.8C7.98994 1.8 6.28744 2.4975 4.89244 3.8925C3.49744 5.2875 2.79994 6.99 2.79994 9C2.79994 11.01 3.49744 12.7125 4.89244 14.1075C6.28744 15.5025 7.98994 16.2 9.99994 16.2Z" fill="url(#paint0_linear_48_985)"/>
<path d="M9.99994 15C9.16994 15 8.38994 14.8424 7.65994 14.5272C6.92994 14.212 6.29494 13.7846 5.75494 13.245C5.21494 12.705 4.78754 12.07 4.47274 11.34C4.15794 10.61 4.00034 9.83 3.99994 9C3.99994 8.17 4.15754 7.39 4.47274 6.66C4.78794 5.93 5.21534 5.295 5.75494 4.755C6.29494 4.215 6.92994 3.7876 7.65994 3.4728C8.38994 3.158 9.16994 3.0004 9.99994 3C10.8299 3 11.6099 3.1576 12.3399 3.4728C13.0699 3.788 13.7049 4.2154 14.2449 4.755C14.7849 5.295 15.2125 5.93 15.5277 6.66C15.8429 7.39 16.0003 8.17 15.9999 9C15.9999 9.83 15.8423 10.61 15.5271 11.34C15.2119 12.07 14.7845 12.705 14.2449 13.245C13.7049 13.785 13.0699 14.2126 12.3399 14.5278C11.6099 14.843 10.8299 15.0004 9.99994 15Z" fill="url(#paint1_linear_48_985)"/>
<path d="M9.70623 7.15198L6.85883 6.36988L7.28862 4.6084C7.31841 4.48633 7.29811 4.3693 7.2293 4.25969C7.16041 4.14996 7.06344 4.08215 6.94 4.05896L2.6818 3.1625C2.68168 3.16247 2.68157 3.16245 2.68145 3.16242C2.5658 3.1361 2.45844 3.15282 2.36209 3.21371C2.2663 3.27423 2.20433 3.36121 2.17714 3.47257C2.14737 3.59372 2.16603 3.71105 2.23154 3.82242C2.29752 3.9346 2.39332 4.00383 2.51721 4.02711L6.27555 4.81837L5.83958 6.60517C5.81022 6.72549 5.82552 6.83857 5.88632 6.94192C5.94711 7.04528 6.03851 7.1136 6.15794 7.1464L9.48242 8.05954C9.61078 8.0948 9.7301 8.08202 9.83736 8.01893C9.94461 7.95584 10.0138 7.85776 10.0453 7.72844C10.0769 7.59912 10.0611 7.47846 9.99677 7.36904C9.93241 7.25962 9.83459 7.18724 9.70623 7.15198ZM7.65249 8.36002L4.80508 7.57792L5.23488 5.81644C5.26466 5.69437 5.24437 5.57734 5.17555 5.46773C5.10666 5.358 5.0097 5.29019 4.88626 5.267L0.627927 4.37051C0.627838 4.37049 0.627748 4.37047 0.627659 4.37045C0.511631 4.34443 0.404167 4.36117 0.308 4.42195C0.212418 4.48236 0.150576 4.56928 0.123398 4.6806C0.0936225 4.80176 0.112284 4.91909 0.177792 5.03046C0.243775 5.14263 0.339571 5.21187 0.463459 5.23515L4.22181 6.02641L3.78583 7.81321C3.75647 7.93353 3.77178 8.04661 3.83257 8.14996C3.89337 8.25332 3.98476 8.32164 4.10419 8.35444L7.42868 9.26758C7.55704 9.30284 7.67636 9.29006 7.78361 9.22697C7.89087 9.16388 7.96001 9.0658 7.99157 8.93648C8.02312 8.80716 8.00738 8.6865 7.94302 8.57708C7.87866 8.46766 7.78085 8.39528 7.65249 8.36002Z" fill="#2A2F4F" stroke="#2A2F4F" stroke-width="0.08"/>
<path d="M10.4737 10.2197L13.3149 11.0241L12.8703 12.7819C12.8395 12.9037 12.8588 13.0209 12.9267 13.131C12.9947 13.2413 13.0911 13.3098 13.2144 13.334L17.4657 14.2638C17.4658 14.2638 17.4659 14.2638 17.466 14.2639C17.5815 14.2911 17.689 14.2752 17.7859 14.2151C17.8822 14.1553 17.9449 14.0688 17.973 13.9577C18.0038 13.8368 17.9861 13.7194 17.9215 13.6075C17.8564 13.4948 17.7612 13.4248 17.6375 13.4006L13.8853 12.5799L14.3362 10.7968C14.3666 10.6768 14.3522 10.5636 14.2923 10.4597C14.2324 10.3559 14.1415 10.2869 14.0223 10.2532L10.705 9.31403C10.577 9.27777 10.4575 9.28961 10.3497 9.35184C10.2419 9.41407 10.172 9.51159 10.1393 9.64064C10.1067 9.7697 10.1214 9.89047 10.1849 10.0004C10.2483 10.1103 10.3456 10.1834 10.4737 10.2197ZM12.5378 9.02798L15.379 9.83233L14.9344 11.5902C14.9036 11.712 14.923 11.8292 14.9909 11.9393C15.0588 12.0496 15.1553 12.1181 15.2785 12.1423L19.53 13.0721C19.53 13.0721 19.5301 13.0721 19.5302 13.0722C19.646 13.0991 19.7537 13.0832 19.8503 13.0232C19.9464 12.9635 20.009 12.8771 20.0371 12.766C20.0679 12.6451 20.0502 12.5276 19.9856 12.4158C19.9206 12.3031 19.8253 12.2331 19.7016 12.2089L15.9494 11.3882L16.4004 9.60511C16.4307 9.48504 16.4164 9.37185 16.3564 9.26802C16.2965 9.1642 16.2056 9.09517 16.0865 9.06143L12.7692 8.12231C12.6411 8.08605 12.5216 8.09789 12.4139 8.16012C12.3061 8.22235 12.2361 8.31986 12.2035 8.44892C12.1708 8.57797 12.1855 8.69875 12.249 8.80866C12.3125 8.91858 12.4097 8.99172 12.5378 9.02798Z" fill="#2A2F4F" stroke="#2A2F4F" stroke-width="0.08"/>
<defs>
<linearGradient id="paint0_linear_48_985" x1="14.5" y1="15.5" x2="-2" y2="-1" gradientUnits="userSpaceOnUse">
<stop stop-color="#495579"/>
<stop offset="1" stop-color="white" stop-opacity="0"/>
</linearGradient>
<linearGradient id="paint1_linear_48_985" x1="9.5" y1="3.5" x2="14.5" y2="13" gradientUnits="userSpaceOnUse">
<stop stop-color="#F9D949"/>
<stop offset="1" stop-color="#F9D949" stop-opacity="0"/>
</linearGradient>
</defs>
</svg>
