<svg width="83" height="18" viewBox="0 0 83 18" fill="none" xmlns="http://www.w3.org/2000/svg">
<path d="M23.8014 5.992V8.774H27.3244V10.1715H23.8014V14H22.0464V4.601H27.9744V5.992H23.8014ZM30.8075 7.331V14H29.1955V7.331H30.8075ZM31.0285 5.3875C31.0285 5.52617 31.0004 5.65617 30.944 5.7775C30.8877 5.89883 30.8119 6.005 30.7165 6.096C30.6255 6.187 30.5172 6.26067 30.3915 6.317C30.2659 6.369 30.1315 6.395 29.9885 6.395C29.8499 6.395 29.7177 6.369 29.592 6.317C29.4707 6.26067 29.3645 6.187 29.2735 6.096C29.1825 6.005 29.1089 5.89883 29.0525 5.7775C29.0005 5.65617 28.9745 5.52617 28.9745 5.3875C28.9745 5.2445 29.0005 5.11017 29.0525 4.9845C29.1089 4.85883 29.1825 4.7505 29.2735 4.6595C29.3645 4.5685 29.4707 4.497 29.592 4.445C29.7177 4.38867 29.8499 4.3605 29.9885 4.3605C30.1315 4.3605 30.2659 4.38867 30.3915 4.445C30.5172 4.497 30.6255 4.5685 30.7165 4.6595C30.8119 4.7505 30.8877 4.85883 30.944 4.9845C31.0004 5.11017 31.0285 5.2445 31.0285 5.3875ZM33.9458 8.15C34.0801 8.01567 34.221 7.89217 34.3683 7.7795C34.52 7.6625 34.6781 7.565 34.8428 7.487C35.0118 7.40467 35.1916 7.34183 35.3823 7.2985C35.573 7.25083 35.781 7.227 36.0063 7.227C36.3703 7.227 36.6931 7.28983 36.9748 7.4155C37.2565 7.53683 37.4905 7.71017 37.6768 7.9355C37.8675 8.1565 38.0105 8.423 38.1058 8.735C38.2055 9.04267 38.2553 9.38283 38.2553 9.7555V14H36.6498V9.7555C36.6498 9.34817 36.5566 9.034 36.3703 8.813C36.184 8.58767 35.9001 8.475 35.5188 8.475C35.2415 8.475 34.9815 8.53783 34.7388 8.6635C34.4961 8.78917 34.2665 8.96033 34.0498 9.177V14H32.4443V7.331H33.4258C33.6338 7.331 33.7703 7.4285 33.8353 7.6235L33.9458 8.15ZM43.9682 9.034C43.7862 8.813 43.5869 8.657 43.3702 8.566C43.1579 8.475 42.9282 8.4295 42.6812 8.4295C42.4385 8.4295 42.2197 8.475 42.0247 8.566C41.8297 8.657 41.6629 8.79567 41.5242 8.982C41.3855 9.164 41.2794 9.398 41.2057 9.684C41.132 9.96567 41.0952 10.2993 41.0952 10.685C41.0952 11.075 41.1255 11.4065 41.1862 11.6795C41.2512 11.9482 41.3422 12.1692 41.4592 12.3425C41.5762 12.5115 41.7192 12.635 41.8882 12.713C42.0572 12.7867 42.2457 12.8235 42.4537 12.8235C42.7874 12.8235 43.0712 12.7542 43.3052 12.6155C43.5392 12.4768 43.7602 12.2797 43.9682 12.024V9.034ZM45.5737 4.341V14H44.5922C44.3799 14 44.2455 13.9025 44.1892 13.7075L44.0527 13.064C43.784 13.3717 43.4742 13.6208 43.1232 13.8115C42.7765 14.0022 42.3714 14.0975 41.9077 14.0975C41.5437 14.0975 41.21 14.0217 40.9067 13.87C40.6034 13.7183 40.3412 13.4995 40.1202 13.2135C39.9035 12.9232 39.7345 12.5657 39.6132 12.141C39.4962 11.7163 39.4377 11.231 39.4377 10.685C39.4377 10.191 39.5049 9.73167 39.6392 9.307C39.7735 8.88233 39.9664 8.514 40.2177 8.202C40.469 7.89 40.7702 7.64733 41.1212 7.474C41.4722 7.29633 41.8665 7.2075 42.3042 7.2075C42.6769 7.2075 42.9954 7.266 43.2597 7.383C43.524 7.5 43.7602 7.65817 43.9682 7.8575V4.341H45.5737ZM49.0651 5.992V8.774H52.5881V10.1715H49.0651V14H47.3101V4.601H53.2381V5.992H49.0651ZM55.4139 8.488C55.6219 8.08933 55.8689 7.77733 56.1549 7.552C56.4409 7.32233 56.7789 7.2075 57.1689 7.2075C57.4766 7.2075 57.7236 7.27467 57.9099 7.409L57.8059 8.6115C57.7842 8.6895 57.7517 8.74583 57.7084 8.7805C57.6694 8.81083 57.6152 8.826 57.5459 8.826C57.4809 8.826 57.3834 8.81517 57.2534 8.7935C57.1277 8.77183 57.0042 8.761 56.8829 8.761C56.7052 8.761 56.5471 8.787 56.4084 8.839C56.2697 8.891 56.1441 8.96683 56.0314 9.0665C55.9231 9.16183 55.8256 9.27883 55.7389 9.4175C55.6566 9.55617 55.5786 9.71433 55.5049 9.892V14H53.8994V7.331H54.8419C55.0066 7.331 55.1214 7.36133 55.1864 7.422C55.2514 7.47833 55.2947 7.58233 55.3164 7.734L55.4139 8.488ZM60.413 7.331V14H58.801V7.331H60.413ZM60.634 5.3875C60.634 5.52617 60.6058 5.65617 60.5495 5.7775C60.4932 5.89883 60.4173 6.005 60.322 6.096C60.231 6.187 60.1227 6.26067 59.997 6.317C59.8713 6.369 59.737 6.395 59.594 6.395C59.4553 6.395 59.3232 6.369 59.1975 6.317C59.0762 6.26067 58.97 6.187 58.879 6.096C58.788 6.005 58.7143 5.89883 58.658 5.7775C58.606 5.65617 58.58 5.52617 58.58 5.3875C58.58 5.2445 58.606 5.11017 58.658 4.9845C58.7143 4.85883 58.788 4.7505 58.879 4.6595C58.97 4.5685 59.0762 4.497 59.1975 4.445C59.3232 4.38867 59.4553 4.3605 59.594 4.3605C59.737 4.3605 59.8713 4.38867 59.997 4.445C60.1227 4.497 60.231 4.5685 60.322 4.6595C60.4173 4.7505 60.4932 4.85883 60.5495 4.9845C60.6058 5.11017 60.634 5.2445 60.634 5.3875ZM66.3463 9.8985C66.3463 9.6905 66.3159 9.4955 66.2553 9.3135C66.1989 9.12717 66.1123 8.96467 65.9953 8.826C65.8783 8.68733 65.7288 8.579 65.5468 8.501C65.3691 8.41867 65.1611 8.3775 64.9228 8.3775C64.4591 8.3775 64.0929 8.50967 63.8243 8.774C63.5599 9.03833 63.3909 9.41317 63.3173 9.8985H66.3463ZM63.2848 10.867C63.3108 11.2093 63.3714 11.5062 63.4668 11.7575C63.5621 12.0045 63.6878 12.2103 63.8438 12.375C63.9998 12.5353 64.1839 12.6567 64.3963 12.739C64.6129 12.817 64.8513 12.856 65.1113 12.856C65.3713 12.856 65.5944 12.8257 65.7808 12.765C65.9714 12.7043 66.1361 12.6372 66.2748 12.5635C66.4178 12.4898 66.5413 12.4227 66.6453 12.362C66.7536 12.3013 66.8576 12.271 66.9573 12.271C67.0916 12.271 67.1913 12.3208 67.2563 12.4205L67.7178 13.0055C67.5401 13.2135 67.3408 13.389 67.1198 13.532C66.8988 13.6707 66.6669 13.7833 66.4243 13.87C66.1859 13.9523 65.9411 14.0108 65.6898 14.0455C65.4428 14.0802 65.2023 14.0975 64.9683 14.0975C64.5046 14.0975 64.0734 14.0217 63.6748 13.87C63.2761 13.714 62.9294 13.4865 62.6348 13.1875C62.3401 12.8842 62.1083 12.5115 61.9393 12.0695C61.7703 11.6232 61.6858 11.1075 61.6858 10.5225C61.6858 10.0675 61.7594 9.64067 61.9068 9.242C62.0541 8.839 62.2643 8.49017 62.5373 8.1955C62.8146 7.8965 63.1504 7.66033 63.5448 7.487C63.9434 7.31367 64.3919 7.227 64.8903 7.227C65.3106 7.227 65.6984 7.29417 66.0538 7.4285C66.4091 7.56283 66.7146 7.76 66.9703 8.02C67.2259 8.27567 67.4253 8.592 67.5683 8.969C67.7156 9.34167 67.7893 9.7685 67.7893 10.2495C67.7893 10.4922 67.7633 10.6568 67.7113 10.7435C67.6593 10.8258 67.5596 10.867 67.4123 10.867H63.2848ZM70.4956 8.15C70.6299 8.01567 70.7708 7.89217 70.9181 7.7795C71.0698 7.6625 71.2279 7.565 71.3926 7.487C71.5616 7.40467 71.7414 7.34183 71.9321 7.2985C72.1228 7.25083 72.3308 7.227 72.5561 7.227C72.9201 7.227 73.2429 7.28983 73.5246 7.4155C73.8063 7.53683 74.0403 7.71017 74.2266 7.9355C74.4173 8.1565 74.5603 8.423 74.6556 8.735C74.7553 9.04267 74.8051 9.38283 74.8051 9.7555V14H73.1996V9.7555C73.1996 9.34817 73.1064 9.034 72.9201 8.813C72.7338 8.58767 72.4499 8.475 72.0686 8.475C71.7913 8.475 71.5313 8.53783 71.2886 8.6635C71.0459 8.78917 70.8163 8.96033 70.5996 9.177V14H68.9941V7.331H69.9756C70.1836 7.331 70.3201 7.4285 70.3851 7.6235L70.4956 8.15ZM80.518 9.034C80.336 8.813 80.1367 8.657 79.92 8.566C79.7077 8.475 79.478 8.4295 79.231 8.4295C78.9883 8.4295 78.7695 8.475 78.5745 8.566C78.3795 8.657 78.2127 8.79567 78.074 8.982C77.9353 9.164 77.8292 9.398 77.7555 9.684C77.6818 9.96567 77.645 10.2993 77.645 10.685C77.645 11.075 77.6753 11.4065 77.736 11.6795C77.801 11.9482 77.892 12.1692 78.009 12.3425C78.126 12.5115 78.269 12.635 78.438 12.713C78.607 12.7867 78.7955 12.8235 79.0035 12.8235C79.3372 12.8235 79.621 12.7542 79.855 12.6155C80.089 12.4768 80.31 12.2797 80.518 12.024V9.034ZM82.1235 4.341V14H81.142C80.9297 14 80.7953 13.9025 80.739 13.7075L80.6025 13.064C80.3338 13.3717 80.024 13.6208 79.673 13.8115C79.3263 14.0022 78.9212 14.0975 78.4575 14.0975C78.0935 14.0975 77.7598 14.0217 77.4565 13.87C77.1532 13.7183 76.891 13.4995 76.67 13.2135C76.4533 12.9232 76.2843 12.5657 76.163 12.141C76.046 11.7163 75.9875 11.231 75.9875 10.685C75.9875 10.191 76.0547 9.73167 76.189 9.307C76.3233 8.88233 76.5162 8.514 76.7675 8.202C77.0188 7.89 77.32 7.64733 77.671 7.474C78.022 7.29633 78.4163 7.2075 78.854 7.2075C79.2267 7.2075 79.5452 7.266 79.8095 7.383C80.0738 7.5 80.31 7.65817 80.518 7.8575V4.341H82.1235Z" fill="white"/>
<path d="M9.99994 18C8.75494 18 7.58494 17.7636 6.48994 17.2908C5.39494 16.818 4.44244 16.1769 3.63244 15.3675C2.82244 14.5575 2.18134 13.605 1.70914 12.51C1.23694 11.415 1.00054 10.245 0.999939 9C0.999939 7.755 1.23634 6.585 1.70914 5.49C2.18194 4.395 2.82304 3.4425 3.63244 2.6325C4.44244 1.8225 5.39494 1.1814 6.48994 0.7092C7.58494 0.237 8.75494 0.0006 9.99994 0C11.2449 0 12.4149 0.2364 13.5099 0.7092C14.6049 1.182 15.5574 1.8231 16.3674 2.6325C17.1774 3.4425 17.8188 4.395 18.2916 5.49C18.7644 6.585 19.0005 7.755 18.9999 9C18.9999 10.245 18.7635 11.415 18.2907 12.51C17.8179 13.605 17.1768 14.5575 16.3674 15.3675C15.5574 16.1775 14.6049 16.8189 13.5099 17.2917C12.4149 17.7645 11.2449 18.0006 9.99994 18ZM9.99994 16.2C12.0099 16.2 13.7124 15.5025 15.1074 14.1075C16.5024 12.7125 17.1999 11.01 17.1999 9C17.1999 6.99 16.5024 5.2875 15.1074 3.8925C13.7124 2.4975 12.0099 1.8 9.99994 1.8C7.98994 1.8 6.28744 2.4975 4.89244 3.8925C3.49744 5.2875 2.79994 6.99 2.79994 9C2.79994 11.01 3.49744 12.7125 4.89244 14.1075C6.28744 15.5025 7.98994 16.2 9.99994 16.2Z" fill="white"/>
<path d="M9.99994 15C9.16994 15 8.38994 14.8424 7.65994 14.5272C6.92994 14.212 6.29494 13.7846 5.75494 13.245C5.21494 12.705 4.78754 12.07 4.47274 11.34C4.15794 10.61 4.00034 9.83 3.99994 9C3.99994 8.17 4.15754 7.39 4.47274 6.66C4.78794 5.93 5.21534 5.295 5.75494 4.755C6.29494 4.215 6.92994 3.7876 7.65994 3.4728C8.38994 3.158 9.16994 3.0004 9.99994 3C10.8299 3 11.6099 3.1576 12.3399 3.4728C13.0699 3.788 13.7049 4.2154 14.2449 4.755C14.7849 5.295 15.2125 5.93 15.5277 6.66C15.8429 7.39 16.0003 8.17 15.9999 9C15.9999 9.83 15.8423 10.61 15.5271 11.34C15.2119 12.07 14.7845 12.705 14.2449 13.245C13.7049 13.785 13.0699 14.2126 12.3399 14.5278C11.6099 14.843 10.8299 15.0004 9.99994 15Z" fill="white"/>
<path d="M9.70623 7.15198L6.85883 6.36988L7.28862 4.6084C7.31841 4.48633 7.29811 4.3693 7.2293 4.25969C7.16041 4.14996 7.06344 4.08215 6.94 4.05896L2.6818 3.1625C2.68168 3.16247 2.68157 3.16245 2.68145 3.16242C2.5658 3.1361 2.45844 3.15282 2.36209 3.21371C2.2663 3.27423 2.20433 3.36121 2.17714 3.47257C2.14737 3.59372 2.16603 3.71105 2.23154 3.82242C2.29752 3.9346 2.39332 4.00383 2.51721 4.02711L6.27555 4.81837L5.83958 6.60517C5.81022 6.72549 5.82552 6.83857 5.88632 6.94192C5.94711 7.04528 6.03851 7.1136 6.15794 7.1464L9.48242 8.05954C9.61078 8.0948 9.7301 8.08202 9.83736 8.01893C9.94461 7.95584 10.0138 7.85776 10.0453 7.72844C10.0769 7.59912 10.0611 7.47846 9.99677 7.36904C9.93241 7.25962 9.83459 7.18724 9.70623 7.15198ZM7.65249 8.36002L4.80508 7.57792L5.23488 5.81644C5.26466 5.69437 5.24437 5.57734 5.17555 5.46773C5.10666 5.358 5.0097 5.29019 4.88626 5.267L0.627927 4.37051C0.627838 4.37049 0.627748 4.37047 0.627659 4.37045C0.511631 4.34443 0.404167 4.36117 0.308 4.42195C0.212418 4.48236 0.150576 4.56928 0.123398 4.6806C0.0936225 4.80176 0.112284 4.91909 0.177792 5.03046C0.243775 5.14263 0.339571 5.21187 0.463459 5.23515L4.22181 6.02641L3.78583 7.81321C3.75647 7.93353 3.77178 8.04661 3.83257 8.14996C3.89337 8.25332 3.98476 8.32164 4.10419 8.35444L7.42868 9.26758C7.55704 9.30284 7.67636 9.29006 7.78361 9.22697C7.89087 9.16388 7.96001 9.0658 7.99157 8.93648C8.02312 8.80716 8.00738 8.6865 7.94302 8.57708C7.87866 8.46766 7.78085 8.39528 7.65249 8.36002Z" fill="#2A2F4F" stroke="#2A2F4F" stroke-width="0.08"/>
<path d="M10.4737 10.2197L13.3149 11.0241L12.8703 12.7819C12.8395 12.9037 12.8588 13.0209 12.9267 13.131C12.9947 13.2413 13.0911 13.3098 13.2144 13.334L17.4657 14.2638C17.4658 14.2638 17.4659 14.2638 17.466 14.2639C17.5815 14.2911 17.689 14.2752 17.7859 14.2151C17.8822 14.1553 17.9449 14.0688 17.973 13.9577C18.0038 13.8368 17.9861 13.7194 17.9215 13.6075C17.8564 13.4948 17.7612 13.4248 17.6375 13.4006L13.8853 12.5799L14.3362 10.7968C14.3666 10.6768 14.3522 10.5636 14.2923 10.4597C14.2324 10.3559 14.1415 10.2869 14.0223 10.2532L10.705 9.31403C10.577 9.27777 10.4575 9.28961 10.3497 9.35184C10.2419 9.41407 10.172 9.51159 10.1393 9.64064C10.1067 9.7697 10.1214 9.89047 10.1849 10.0004C10.2483 10.1103 10.3456 10.1834 10.4737 10.2197ZM12.5378 9.02798L15.379 9.83233L14.9344 11.5902C14.9036 11.712 14.923 11.8292 14.9909 11.9393C15.0588 12.0496 15.1553 12.1181 15.2785 12.1423L19.53 13.0721C19.53 13.0721 19.5301 13.0721 19.5302 13.0722C19.646 13.0991 19.7537 13.0832 19.8503 13.0232C19.9464 12.9635 20.009 12.8771 20.0371 12.766C20.0679 12.6451 20.0502 12.5276 19.9856 12.4158C19.9206 12.3031 19.8253 12.2331 19.7016 12.2089L15.9494 11.3882L16.4004 9.60511C16.4307 9.48504 16.4164 9.37185 16.3564 9.26802C16.2965 9.1642 16.2056 9.09517 16.0865 9.06143L12.7692 8.12231C12.6411 8.08605 12.5216 8.09789 12.4139 8.16012C12.3061 8.22235 12.2361 8.31986 12.2035 8.44892C12.1708 8.57797 12.1855 8.69875 12.249 8.80866C12.3125 8.91858 12.4097 8.99172 12.5378 9.02798Z" fill="#2A2F4F" stroke="#2A2F4F" stroke-width="0.08"/>
</svg>
